<?xml version="1.0" encoding="utf-8"?>
<!-- Generator: Adobe Illustrator 24.2.1, SVG Export Plug-In . SVG Version: 6.00 Build 0)  -->
<svg version="1.1" id="Layer_1" xmlns="http://www.w3.org/2000/svg" xmlns:xlink="http://www.w3.org/1999/xlink" x="0px" y="0px"
	 viewBox="0 0 400 400" style="enable-background:new 0 0 400 400;" xml:space="preserve">
<style type="text/css">
	.st0{fill:#00615D;}
	.st1{fill:none;stroke:#00615D;stroke-width:8;stroke-miterlimit:10;}
	.st2{fill:none;stroke:#00615D;stroke-width:7;stroke-miterlimit:10;}
</style>
<g>
	<path class="st0" d="M315.59,115.24H84.41c-2.13,0-3.85,1.72-3.85,3.85v161.82c0,2.13,1.72,3.85,3.85,3.85h231.18
		c2.13,0,3.85-1.73,3.85-3.85V119.09C319.44,116.96,317.71,115.24,315.59,115.24L315.59,115.24z M88.27,141.31l69.53,41.71
		l-69.53,86.91V141.31z M92.43,277.06l72.02-90.04l33.56,20.14c1.22,0.73,2.75,0.73,3.97,0l33.56-20.14l72.02,90.04H92.43z
		 M311.73,269.92l-69.53-86.91l69.53-41.71V269.92z M311.73,132.32L200,199.36L88.27,132.32v-9.38h223.47V132.32z"/>
</g>
<rect x="19.09" y="19.09" class="st1" width="361.83" height="361.83"/>
</svg>
