<svg id="Layer_1" data-name="Layer 1" xmlns="http://www.w3.org/2000/svg" viewBox="0 0 400 400"><defs><style>.cls-1,.cls-2,.cls-3{fill:none;stroke:#fff;stroke-miterlimit:10;}.cls-1{stroke-width:8px;}.cls-2,.cls-3{stroke-width:7px;}.cls-2{fill-rule:evenodd;}</style></defs><rect class="cls-1" x="19.09" y="19.09" width="361.83" height="361.83"/><path class="cls-2" d="M200,106.4a96.38,96.38,0,0,0-30.47,187.82c4.82.9,6.59-2.09,6.59-4.63,0-2.3-.09-9.89-.13-17.95-26.82,5.84-32.47-11.37-32.47-11.37-4.39-11.14-10.7-14.1-10.7-14.1-8.75-6,.66-5.86.66-5.86,9.67.68,14.77,9.94,14.77,9.94,8.59,14.73,22.54,10.47,28,8,.87-6.23,3.37-10.48,6.12-12.89-21.4-2.44-43.91-10.7-43.91-47.63a37.33,37.33,0,0,1,9.93-25.87c-1-2.43-4.3-12.23.94-25.5,0,0,8.09-2.59,26.51,9.88a91.2,91.2,0,0,1,48.26,0c18.4-12.47,26.48-9.88,26.48-9.88,5.25,13.27,1.95,23.07.95,25.5a37.22,37.22,0,0,1,9.91,25.87c0,37-22.54,45.17-44,47.55,3.45,3,6.53,8.86,6.53,17.85,0,12.9-.11,23.27-.11,26.45,0,2.56,1.74,5.57,6.62,4.62A96.39,96.39,0,0,0,200,106.4Z"/><path class="cls-3" d="M140.13,244.77c-.21.48-1,.63-1.65.3s-1.1-1-.87-1.45,1-.63,1.66-.3,1.1,1,.86,1.45Zm-1.19-.88"/><path class="cls-3" d="M144,249.13c-.46.42-1.36.22-2-.45a1.48,1.48,0,0,1-.28-2c.47-.43,1.35-.23,2,.44s.75,1.58.27,2Zm-.92-1"/><path class="cls-3" d="M147.83,254.68c-.59.41-1.56,0-2.15-.83s-.59-1.89,0-2.3,1.55,0,2.16.81.58,1.9,0,2.32Zm0,0"/><path class="cls-3" d="M153,260c-.53.58-1.66.43-2.48-.37s-1.08-1.88-.55-2.46,1.67-.42,2.5.37,1.09,1.88.53,2.46Zm0,0"/><path class="cls-3" d="M160.22,263.15c-.24.76-1.32,1.1-2.41.78s-1.8-1.21-1.58-2,1.31-1.11,2.41-.77,1.8,1.21,1.58,2Zm0,0"/><path class="cls-3" d="M168.11,263.73c0,.8-.9,1.45-2.05,1.47s-2.08-.62-2.1-1.4.91-1.46,2.06-1.48,2.09.62,2.09,1.41Zm0,0"/><path class="cls-3" d="M175.45,262.48c.13.78-.66,1.57-1.8,1.79s-2.16-.28-2.3-1,.67-1.59,1.79-1.79,2.16.26,2.31,1.05Zm0,0"/></svg>