<?xml version="1.0" encoding="utf-8"?>
<!-- Generator: Adobe Illustrator 24.2.1, SVG Export Plug-In . SVG Version: 6.00 Build 0)  -->
<svg version="1.1" id="Layer_1" xmlns="http://www.w3.org/2000/svg" xmlns:xlink="http://www.w3.org/1999/xlink" x="0px" y="0px"
	 viewBox="0 0 360 360" style="enable-background:new 0 0 360 360;" xml:space="preserve">
<style type="text/css">
	.st0{opacity:0.05;}
	.st1{fill:#FFFFFF;}
</style>
<g class="st0">
	<g>
		<path id="XMLID_20_" class="st1" d="M146.98,317.42l17-17l2.14,2.14l-49.3,49.3l-2.14-2.14l17-17l-92.18-92.18
			c-5.51-5.51-10.28-8.45-14.32-8.8c-4.03-0.36-7.53,0.94-10.49,3.91c-2.35,2.35-3.73,4.69-4.13,7.04
			c-0.41,2.34,0.56,4.69,2.91,7.04c1.43,1.43,2.76,2.45,3.98,3.06c1.23,0.61,2.4,1.17,3.52,1.68c1.12,0.51,2.24,1.02,3.37,1.53
			c1.12,0.51,2.24,1.33,3.37,2.45c0.61,0.61,1.2,1.45,1.76,2.53c0.56,1.07,0.89,2.22,1,3.44c0.1,1.23-0.11,2.6-0.61,4.13
			c-0.51,1.53-1.53,3.06-3.06,4.59c-3.37,3.37-6.87,4.98-10.49,4.82c-3.63-0.15-6.97-1.76-10.03-4.82
			c-2.55-2.55-4.26-5.44-5.13-8.65c-0.87-3.22-1.02-6.58-0.46-10.11c0.56-3.52,1.84-7.04,3.83-10.57c1.99-3.52,4.62-6.91,7.89-10.18
			c4.69-4.69,9.47-7.88,14.32-9.57c4.85-1.68,9.65-2.14,14.39-1.38c4.75,0.77,9.39,2.55,13.94,5.36c4.54,2.81,8.9,6.3,13.09,10.49
			L146.98,317.42z"/>
		<path id="XMLID_19_" class="st1" d="M25.4,225.24l26.03-26.03c1.53-1.53,3.12-3.16,4.75-4.9c1.63-1.73,3.27-3.52,4.9-5.36
			c1.63-1.83,3.29-3.65,4.98-5.44c1.68-1.79,3.29-3.44,4.82-4.98c3.57-3.57,6.79-6.69,9.65-9.34c2.86-2.65,5.59-4.98,8.19-6.97
			c2.6-1.99,5.31-3.77,8.12-5.36c2.81-1.58,6-3.04,9.57-4.37c6.23-2.55,12.76-4.24,19.6-5.05c6.84-0.82,13.76-0.59,20.75,0.69
			c6.99,1.28,13.98,3.78,20.98,7.5c6.99,3.73,13.86,8.96,20.59,15.69c5.82,5.82,10.69,12.07,14.63,18.76
			c3.93,6.68,6.68,13.73,8.27,21.13c1.58,7.4,1.81,15.08,0.69,23.04c-1.13,7.96-3.78,16.08-7.96,24.35
			c-1.43,2.86-2.86,5.46-4.29,7.81c-1.43,2.35-3.07,4.7-4.9,7.04c-1.84,2.35-3.91,4.77-6.2,7.27c-2.3,2.5-4.98,5.28-8.04,8.34
			c-1.43,1.43-2.88,2.84-4.36,4.21c-1.48,1.38-2.93,2.78-4.36,4.21c-1.53,1.33-3.04,2.68-4.52,4.06c-1.48,1.38-2.93,2.78-4.36,4.21
			l-28.48,28.48l-2.14-2.14l17-17L44.54,210.39l-17,17L25.4,225.24z M164.59,299.81c2.04-1.84,4.16-3.75,6.35-5.74
			c2.19-1.99,4.57-4.26,7.12-6.81c8.57-8.57,14.49-17.05,17.76-25.42c3.27-8.37,4.34-16.64,3.22-24.81
			c-1.13-8.17-4.21-16.31-9.26-24.42c-5.05-8.12-11.61-16.2-19.68-24.27c-6.84-6.84-13.78-12.51-20.83-17
			c-7.04-4.49-14.95-7.86-23.73-10.11c-5.72-1.43-11.03-1.89-15.93-1.38c-4.9,0.51-9.5,1.73-13.78,3.68
			c-4.29,1.94-8.32,4.44-12.1,7.5c-3.78,3.06-7.4,6.33-10.87,9.8c-2.76,2.76-5.23,5.33-7.43,7.73c-2.2,2.4-4.06,4.57-5.59,6.51
			L164.59,299.81z"/>
	</g>
	<g>
		<path id="XMLID_5_" class="st1" d="M292.21,236.41c4.19-4.19,8.55-7.68,13.1-10.49c4.54-2.81,9.18-4.59,13.93-5.36
			c4.75-0.77,9.55-0.31,14.39,1.38c4.85,1.69,9.62,4.88,14.32,9.57c3.27,3.27,5.89,6.66,7.88,10.18c1.99,3.52,3.27,7.04,3.83,10.56
			c0.57,3.52,0.41,6.89-0.46,10.11c-0.86,3.21-2.58,6.1-5.13,8.65c-3.06,3.06-6.4,4.67-10.03,4.82c-3.62,0.15-7.12-1.46-10.49-4.82
			c-1.53-1.53-2.55-3.06-3.06-4.59c-0.51-1.53-0.71-2.91-0.61-4.13c0.11-1.23,0.44-2.37,0.99-3.45c0.57-1.07,1.15-1.91,1.76-2.53
			c1.13-1.13,2.25-1.94,3.37-2.45c1.13-0.51,2.24-1.02,3.37-1.53c1.13-0.51,2.3-1.07,3.52-1.68c1.23-0.61,2.55-1.63,3.98-3.06
			c2.35-2.35,3.32-4.7,2.91-7.04c-0.41-2.35-1.79-4.69-4.14-7.04c-2.96-2.96-6.45-4.26-10.49-3.9c-4.03,0.36-8.8,3.29-14.31,8.8
			l-92.18,92.18l17,17l-2.14,2.14l-49.31-49.31l2.14-2.14l17,17L292.21,236.41z"/>
		<path id="XMLID_4_" class="st1" d="M332.79,225.23l-17-17L211.06,312.97l17,17l-2.14,2.14l-28.48-28.48
			c-1.43-1.43-2.88-2.83-4.36-4.21c-1.48-1.38-2.98-2.73-4.52-4.06c-1.43-1.43-2.88-2.83-4.36-4.21c-1.48-1.38-2.93-2.78-4.36-4.21
			c-3.06-3.06-5.74-5.85-8.04-8.34c-2.3-2.5-4.36-4.93-6.2-7.27c-1.83-2.35-3.47-4.69-4.9-7.04c-1.43-2.35-2.86-4.95-4.29-7.81
			c-4.18-8.27-6.84-16.38-7.96-24.34c-1.12-7.96-0.89-15.64,0.69-23.04c1.58-7.4,4.34-14.45,8.27-21.13
			c3.93-6.69,8.8-12.94,14.62-18.76c6.74-6.74,13.6-11.97,20.6-15.69c6.99-3.72,13.99-6.22,20.98-7.5
			c6.99-1.28,13.91-1.51,20.75-0.69c6.84,0.82,13.37,2.5,19.6,5.05c3.57,1.33,6.76,2.78,9.57,4.36c2.81,1.58,5.51,3.37,8.12,5.36
			c2.6,1.99,5.33,4.31,8.19,6.97c2.86,2.66,6.07,5.77,9.65,9.34c1.53,1.53,3.14,3.19,4.82,4.98c1.68,1.79,3.34,3.6,4.98,5.44
			c1.63,1.84,3.27,3.62,4.9,5.36c1.63,1.73,3.22,3.37,4.75,4.9l26.03,26.03L332.79,225.23z M300.49,192.93
			c-1.53-1.94-3.39-4.11-5.59-6.51c-2.19-2.4-4.67-4.98-7.43-7.73c-3.47-3.47-7.09-6.74-10.87-9.8c-3.78-3.06-7.81-5.56-12.1-7.5
			c-4.28-1.94-8.88-3.17-13.78-3.67c-4.9-0.51-10.21-0.05-15.92,1.38c-8.78,2.25-16.69,5.62-23.73,10.1
			c-7.04,4.49-13.99,10.16-20.83,17c-8.06,8.06-14.62,16.15-19.68,24.27c-5.05,8.12-8.14,16.26-9.26,24.42
			c-1.12,8.16-0.05,16.43,3.21,24.8c3.27,8.37,9.19,16.84,17.76,25.42c2.55,2.55,4.93,4.82,7.12,6.82c2.2,1.99,4.31,3.9,6.35,5.74
			L300.49,192.93z"/>
	</g>
	<g>
		<path id="XMLID_15_" class="st1" d="M210.37,43.44l-17,17l-2.14-2.14l49.3-49.3l2.14,2.14l-16.99,17l92.18,92.18
			c5.51,5.51,10.29,8.45,14.32,8.81c4.03,0.36,7.53-0.95,10.49-3.91c2.35-2.35,3.73-4.69,4.14-7.04c0.41-2.35-0.56-4.7-2.91-7.05
			c-1.43-1.43-2.75-2.45-3.98-3.06c-1.23-0.61-2.4-1.17-3.52-1.68c-1.12-0.51-2.24-1.02-3.37-1.53c-1.12-0.51-2.24-1.33-3.37-2.45
			c-0.61-0.61-1.2-1.46-1.76-2.53c-0.56-1.07-0.89-2.22-0.99-3.45c-0.1-1.23,0.1-2.6,0.61-4.13c0.51-1.53,1.53-3.06,3.06-4.59
			c3.37-3.37,6.87-4.98,10.49-4.82c3.63,0.15,6.97,1.76,10.03,4.82c2.55,2.55,4.26,5.44,5.13,8.65c0.87,3.22,1.02,6.58,0.46,10.11
			c-0.56,3.52-1.84,7.04-3.83,10.57c-1.99,3.52-4.62,6.91-7.88,10.18c-4.7,4.69-9.47,7.88-14.32,9.57
			c-4.85,1.68-9.65,2.14-14.39,1.38c-4.75-0.77-9.39-2.55-13.94-5.36c-4.54-2.81-8.91-6.3-13.09-10.49L210.37,43.44z"/>
		<path id="XMLID_14_" class="st1" d="M331.95,135.62l-26.03,26.03c-1.53,1.53-3.11,3.16-4.75,4.9c-1.63,1.73-3.27,3.52-4.9,5.36
			c-1.63,1.84-3.29,3.65-4.97,5.44c-1.68,1.78-3.29,3.44-4.83,4.98c-3.57,3.57-6.79,6.69-9.65,9.34c-2.86,2.65-5.59,4.97-8.19,6.97
			c-2.6,1.99-5.31,3.77-8.12,5.36c-2.81,1.58-6,3.04-9.57,4.36c-6.23,2.55-12.76,4.24-19.6,5.05c-6.84,0.82-13.76,0.58-20.75-0.69
			c-6.99-1.28-13.98-3.78-20.98-7.5c-6.99-3.73-13.86-8.96-20.59-15.69c-5.82-5.82-10.69-12.07-14.62-18.76
			c-3.93-6.68-6.68-13.73-8.27-21.13c-1.58-7.4-1.81-15.08-0.69-23.05c1.12-7.96,3.78-16.08,7.96-24.35
			c1.43-2.86,2.86-5.46,4.29-7.81c1.43-2.35,3.06-4.7,4.9-7.04c1.84-2.35,3.91-4.77,6.2-7.27c2.3-2.5,4.98-5.28,8.04-8.35
			c1.43-1.43,2.89-2.83,4.36-4.21c1.48-1.38,2.93-2.78,4.36-4.21c1.53-1.33,3.04-2.68,4.51-4.06c1.48-1.38,2.94-2.78,4.36-4.21
			l28.48-28.48l2.14,2.15l-17,17l104.74,104.73l16.99-17L331.95,135.62z M192.76,61.05c-2.04,1.84-4.16,3.75-6.36,5.74
			c-2.19,1.99-4.57,4.26-7.12,6.81c-8.57,8.57-14.49,17.05-17.76,25.42c-3.27,8.37-4.34,16.64-3.22,24.81
			c1.12,8.17,4.21,16.31,9.26,24.42c5.05,8.12,11.61,16.21,19.67,24.27c6.84,6.84,13.79,12.51,20.83,17
			c7.05,4.49,14.95,7.86,23.73,10.11c5.72,1.43,11.03,1.89,15.93,1.38c4.9-0.51,9.5-1.73,13.78-3.67c4.29-1.94,8.32-4.44,12.09-7.5
			c3.78-3.06,7.4-6.33,10.87-9.8c2.76-2.75,5.23-5.33,7.43-7.73c2.19-2.4,4.06-4.57,5.59-6.51L192.76,61.05z"/>
	</g>
	<g>
		<path id="XMLID_10_" class="st1" d="M69.4,121.86c-4.19,4.19-8.55,7.68-13.09,10.49c-4.54,2.81-9.19,4.6-13.93,5.36
			c-4.75,0.77-9.55,0.31-14.39-1.38c-4.85-1.69-9.62-4.87-14.32-9.57c-3.27-3.27-5.89-6.66-7.89-10.18
			c-1.99-3.52-3.27-7.04-3.83-10.56c-0.57-3.52-0.41-6.89,0.46-10.11c0.87-3.22,2.58-6.1,5.13-8.65c3.06-3.06,6.4-4.67,10.03-4.82
			c3.62-0.15,7.12,1.45,10.49,4.82c1.53,1.53,2.55,3.06,3.06,4.59c0.51,1.53,0.71,2.91,0.61,4.13c-0.1,1.23-0.44,2.37-1,3.45
			c-0.56,1.07-1.15,1.91-1.76,2.53c-1.12,1.12-2.25,1.94-3.37,2.45c-1.13,0.51-2.25,1.02-3.37,1.53c-1.13,0.51-2.3,1.07-3.52,1.68
			c-1.22,0.61-2.55,1.63-3.98,3.06c-2.35,2.35-3.32,4.7-2.91,7.04c0.41,2.35,1.78,4.7,4.13,7.05c2.96,2.96,6.45,4.26,10.49,3.9
			c4.03-0.36,8.8-3.29,14.32-8.81l92.18-92.18l-17-17l2.14-2.14l49.31,49.3L165.26,60l-17-17L69.4,121.86z"/>
		<path id="XMLID_9_" class="st1" d="M28.82,133.03l17,17L150.56,45.3l-17-17l2.14-2.14l28.48,28.48c1.43,1.43,2.88,2.83,4.36,4.21
			c1.48,1.38,2.99,2.73,4.52,4.06c1.43,1.43,2.88,2.83,4.36,4.21c1.48,1.38,2.93,2.78,4.36,4.21c3.06,3.06,5.74,5.85,8.04,8.34
			c2.29,2.5,4.36,4.93,6.2,7.27c1.83,2.35,3.47,4.69,4.9,7.04c1.43,2.35,2.85,4.95,4.29,7.81c4.18,8.27,6.84,16.38,7.96,24.35
			c1.12,7.96,0.89,15.64-0.69,23.04c-1.58,7.4-4.34,14.45-8.27,21.13c-3.93,6.69-8.8,12.94-14.62,18.76
			c-6.74,6.74-13.6,11.97-20.59,15.69c-6.99,3.72-13.99,6.22-20.98,7.5c-6.99,1.27-13.91,1.51-20.75,0.69
			c-6.84-0.82-13.37-2.5-19.6-5.05c-3.57-1.33-6.76-2.78-9.57-4.36c-2.81-1.58-5.51-3.37-8.12-5.36c-2.6-1.99-5.33-4.31-8.19-6.97
			c-2.86-2.65-6.07-5.77-9.65-9.34c-1.53-1.53-3.14-3.19-4.82-4.98c-1.68-1.79-3.34-3.6-4.98-5.43c-1.63-1.84-3.27-3.63-4.9-5.36
			c-1.63-1.74-3.22-3.37-4.75-4.9l-26.03-26.03L28.82,133.03z M61.13,165.34c1.53,1.94,3.39,4.11,5.59,6.51
			c2.19,2.4,4.67,4.98,7.43,7.73c3.47,3.47,7.09,6.74,10.87,9.8c3.78,3.06,7.81,5.56,12.1,7.5c4.29,1.94,8.88,3.16,13.78,3.67
			c4.9,0.51,10.21,0.05,15.92-1.38c8.78-2.25,16.69-5.62,23.73-10.1c7.04-4.49,13.98-10.16,20.82-17
			c8.06-8.06,14.62-16.15,19.68-24.27c5.05-8.12,8.14-16.26,9.26-24.42c1.12-8.17,0.05-16.43-3.22-24.81
			c-3.27-8.37-9.18-16.84-17.76-25.42c-2.55-2.55-4.93-4.82-7.12-6.82c-2.2-1.99-4.31-3.9-6.35-5.74L61.13,165.34z"/>
	</g>
</g>
</svg>
