<?xml version="1.0" encoding="utf-8"?>
<!-- Generator: Adobe Illustrator 24.2.1, SVG Export Plug-In . SVG Version: 6.00 Build 0)  -->
<svg version="1.1" id="Layer_1" xmlns="http://www.w3.org/2000/svg" xmlns:xlink="http://www.w3.org/1999/xlink" x="0px" y="0px"
	 viewBox="0 0 400 400" style="enable-background:new 0 0 400 400;" xml:space="preserve">
<style type="text/css">
	.st0{fill:#00615D;}
	.st1{fill:none;stroke:#00615D;stroke-width:8;stroke-miterlimit:10;}
	.st2{fill:none;stroke:#00615D;stroke-width:7;stroke-miterlimit:10;}
</style>
<rect x="19.09" y="19.09" class="st1" width="361.83" height="361.83"/>
<g>
	<path class="st2" d="M104.88,144.04h41.84v125.88h-41.84V144.04z"/>
	<path class="st2" d="M126.08,83.36c-14.31,0-23.67,9.4-23.67,21.75c0,12.08,9.08,21.75,23.12,21.75h0.27
		c14.59,0,23.67-9.67,23.67-21.75C149.2,92.75,140.39,83.36,126.08,83.36z"/>
	<path class="st2" d="M249.42,141.09c-22.2,0-32.15,12.2-37.71,20.78v-17.83h-41.84v125.88h41.84v-70.3c0-3.76,0.27-7.52,1.38-10.21
		c3.02-7.52,9.91-15.3,21.47-15.3c15.14,0,21.2,11.54,21.2,28.47v67.34h41.84v-72.18C297.59,159.08,276.95,141.09,249.42,141.09z"/>
</g>
</svg>
