<svg id="Layer_1" data-name="Layer 1" xmlns="http://www.w3.org/2000/svg" viewBox="0 0 400 400"><defs><style>.cls-1,.cls-2{fill:none;stroke:#fff;stroke-miterlimit:10;}.cls-1{stroke-width:8px;}.cls-2{stroke-width:7px;}</style></defs><rect class="cls-1" x="19.09" y="19.09" width="361.83" height="361.83"/><path class="cls-2" d="M104.88,144h41.84V269.92H104.88Z"/><path class="cls-2" d="M126.08,83.36c-14.32,0-23.67,9.39-23.67,21.75,0,12.08,9.08,21.74,23.12,21.74h.27c14.59,0,23.67-9.66,23.67-21.74C149.2,92.75,140.39,83.36,126.08,83.36Z"/><path class="cls-2" d="M249.42,141.09c-22.2,0-32.14,12.2-37.7,20.78V144H169.87V269.92h41.84V199.63c0-3.77.28-7.52,1.38-10.22,3-7.51,9.91-15.3,21.47-15.3,15.14,0,21.2,11.55,21.2,28.47v67.34h41.83V197.74C297.59,159.08,277,141.09,249.42,141.09Z"/></svg>