<?xml version="1.0" encoding="utf-8"?>
<!-- Generator: Adobe Illustrator 24.2.1, SVG Export Plug-In . SVG Version: 6.00 Build 0)  -->
<svg version="1.1" id="Layer_1" xmlns="http://www.w3.org/2000/svg" xmlns:xlink="http://www.w3.org/1999/xlink" x="0px" y="0px"
	 viewBox="0 0 400 400" style="enable-background:new 0 0 400 400;" xml:space="preserve">
<style type="text/css">
	.st0{fill:#00615D;}
	.st1{fill:none;stroke:#00615D;stroke-width:8;stroke-miterlimit:10;}
	.st2{fill:none;stroke:#00615D;stroke-width:7;stroke-miterlimit:10;}
</style>
<rect x="19.09" y="19.09" class="st1" width="361.83" height="361.83"/>
<path class="st0" d="M120.06,107.08v180.72c0,1.92,1.56,3.48,3.48,3.48h132.07c1.92,0,3.47-1.56,3.47-3.48V141.84
	c0-0.08-0.04-0.14-0.04-0.22c-0.02-0.3-0.08-0.61-0.18-0.89c-0.04-0.11-0.07-0.22-0.11-0.33c-0.17-0.38-0.4-0.72-0.7-1.02
	l-34.75-34.75c-0.29-0.29-0.64-0.53-1.02-0.7c-0.1-0.04-0.21-0.08-0.32-0.11c-0.29-0.1-0.59-0.16-0.9-0.18
	c-0.06,0.01-0.13-0.03-0.2-0.03h-97.31C121.62,103.61,120.06,105.16,120.06,107.08z M247.22,138.36h-22.89v-22.89L247.22,138.36z
	 M127.01,110.56h90.36v31.28c0,1.92,1.56,3.47,3.47,3.47h31.28v139.02H127.01V110.56z"/>
<path class="st0" d="M266.03,263.48v6.95h10.43c1.92,0,3.48-1.55,3.48-3.47V86.23c0-1.92-1.56-3.48-3.48-3.48H144.39
	c-1.92,0-3.48,1.56-3.48,3.48v10.43h6.95v-6.95h125.12v173.77H266.03z"/>
<path class="st0" d="M147.87,152.27h83.41v6.95h-83.41V152.27z"/>
<path class="st0" d="M147.87,131.41h27.8v6.95h-27.8V131.41z"/>
<path class="st0" d="M147.87,173.12h55.61v6.95h-55.61V173.12z"/>
<path class="st0" d="M210.43,173.12h20.85v6.95h-20.85V173.12z"/>
<path class="st0" d="M147.87,193.97h83.41v6.95h-83.41V193.97z"/>
<path class="st0" d="M147.87,235.68h83.41v6.95h-83.41V235.68z"/>
<path class="st0" d="M179.15,214.82h52.13v6.95h-52.13V214.82z"/>
<path class="st0" d="M147.87,214.82h24.33v6.95h-24.33V214.82z"/>
<path class="st0" d="M147.87,256.53h13.9v6.95h-13.9V256.53z"/>
<path class="st0" d="M168.72,256.53h62.56v6.95h-62.56V256.53z"/>
</svg>
