<svg id="Layer_1" data-name="Layer 1" xmlns="http://www.w3.org/2000/svg" viewBox="0 0 400 400"><defs><style>.cls-1{fill:none;stroke:#fff;stroke-miterlimit:10;stroke-width:8px;}.cls-2{fill:#fff;}</style></defs><rect class="cls-1" x="19.09" y="19.09" width="361.83" height="361.83"/><path class="cls-2" d="M120.06,107.08V287.81a3.47,3.47,0,0,0,3.48,3.47H255.61a3.47,3.47,0,0,0,3.47-3.47v-146a1.7,1.7,0,0,0,0-.22,3.43,3.43,0,0,0-.18-.89c0-.11-.07-.22-.11-.33a3.56,3.56,0,0,0-.7-1L223.3,104.63a3.42,3.42,0,0,0-1-.7l-.32-.11a3.42,3.42,0,0,0-.9-.18c-.05,0-.12,0-.2,0H123.54A3.47,3.47,0,0,0,120.06,107.08Zm127.16,31.28H224.33V115.48ZM127,110.56h90.37v31.28a3.47,3.47,0,0,0,3.47,3.47h31.28v139H127Z"/><path class="cls-2" d="M266,263.48v6.95h10.43a3.47,3.47,0,0,0,3.48-3.47V86.23a3.47,3.47,0,0,0-3.48-3.47H144.39a3.47,3.47,0,0,0-3.47,3.47V96.66h7v-7H273V263.48Z"/><path class="cls-2" d="M147.87,152.27h83.41v6.95H147.87Z"/><path class="cls-2" d="M147.87,131.41h27.8v7h-27.8Z"/><path class="cls-2" d="M147.87,173.12h55.61v6.95H147.87Z"/><path class="cls-2" d="M210.43,173.12h20.85v6.95H210.43Z"/><path class="cls-2" d="M147.87,194h83.41v6.95H147.87Z"/><path class="cls-2" d="M147.87,235.68h83.41v6.95H147.87Z"/><path class="cls-2" d="M179.15,214.82h52.13v7H179.15Z"/><path class="cls-2" d="M147.87,214.82H172.2v7H147.87Z"/><path class="cls-2" d="M147.87,256.53h13.9v7h-13.9Z"/><path class="cls-2" d="M168.72,256.53h62.56v7H168.72Z"/></svg>