<svg id="Layer_1" data-name="Layer 1" xmlns="http://www.w3.org/2000/svg" viewBox="0 0 400 400"><defs><style>.cls-1{fill:#fff;}.cls-2{fill:none;stroke:#fff;stroke-miterlimit:10;stroke-width:8px;}</style></defs><path class="cls-1" d="M315.59,115.24H84.41a3.85,3.85,0,0,0-3.85,3.85V280.91a3.85,3.85,0,0,0,3.85,3.85H315.59a3.85,3.85,0,0,0,3.85-3.85V119.09a3.85,3.85,0,0,0-3.85-3.85ZM88.27,141.31,157.79,183l-69.52,86.9Zm4.16,135.75,72-90L198,207.16a3.85,3.85,0,0,0,4,0L235.54,187l72,90Zm219.3-7.14L242.21,183l69.52-41.71Zm0-137.6L200,199.36l-111.73-67v-9.38H311.73Z"/><rect class="cls-2" x="19.09" y="19.09" width="361.83" height="361.83"/></svg>